<?xml version="1.0" encoding="UTF-8"?>
<svg width="1928px" height="221px" viewBox="0 0 1928 221" version="1.1" xmlns="http://www.w3.org/2000/svg" xmlns:xlink="http://www.w3.org/1999/xlink">
    <!-- Generator: Sketch 46.2 (44496) - http://www.bohemiancoding.com/sketch -->
    <title>Bottom</title>
    <desc>Created with Sketch.</desc>
    <defs></defs>
    <g id="Page-1" stroke="none" stroke-width="1" fill="none" fill-rule="evenodd">
        <g id="Bottom" fill="#F0F1FA">
            <path d="M0,0 C10.2691117,69.7493499 65.7293471,127.78555 166.380706,174.108601 C242.396667,209.093635 412.289368,180.250064 449.08503,167.370949 C497.954783,150.265694 538.831822,185.28347 583.006378,202.639977 C607.636086,212.317171 636.498964,217.863574 669.595011,219.279188 L0,219.279188 L0,0 Z" id="Path-2"></path>
            <path d="M1188,221 C1245.54394,215.7608 1282.43693,210.1468 1298.67895,204.158001 C1349.33436,185.480211 1356.53333,159.163015 1368.85043,156.61491 C1396.21207,150.954462 1368.09461,182.476948 1436.31284,180.844932 C1504.53106,179.212917 1539.07596,139.039015 1589.02177,136.917257 C1638.96757,134.795499 1641.99083,178.57024 1682.39551,180.844932 C1722.8002,183.119625 1752.86006,185.961157 1800.91577,167.517297 C1848.97148,149.073437 1868.1419,115.243215 1889.56472,89.8681975 C1897.22747,80.7917844 1910.03049,59.6275927 1927.97378,26.3756221 L1927.97378,117.589967 L1927.97378,221 L1188,221 Z" id="Path-3"></path>
        </g>
    </g>
</svg>