<?xml version="1.0" encoding="UTF-8"?>
<svg width="1531px" height="257px" viewBox="0 0 1531 257" version="1.1" xmlns="http://www.w3.org/2000/svg" xmlns:xlink="http://www.w3.org/1999/xlink">
    <!-- Generator: Sketch 46.2 (44496) - http://www.bohemiancoding.com/sketch -->
    <title>Clouds</title>
    <desc>Created with Sketch.</desc>
    <defs></defs>
    <g id="Page-1" stroke="none" stroke-width="1" fill="none" fill-rule="evenodd" fill-opacity="0.199999988">
        <g id="Clouds" fill="#D8D8D8">
            <path d="M0,68 L370,68 C348.812002,53.559985 334.329717,43.19785 326.553147,36.9135949 C302.431624,17.4209649 288.905987,3.25252557 279.150271,0.627681437 C257.44009,-5.21359554 250.734268,31.5668288 220.962797,34.3138407 C191.191326,37.0608527 177.792274,1.95823767 152.56138,0.627681437 C127.330486,-0.702874801 107.583807,36.9135949 72.7430179,36.9135949 C49.5158253,36.9135949 25.2681526,47.27573 0,68 Z" id="Path-4"></path>
            <path d="M0,70 L370,70 C348.812002,62.5676394 334.329717,57.2341875 326.553147,53.9996445 C302.431624,43.9666731 288.905987,36.674094 279.150271,35.3230713 C257.44009,32.3165317 250.734268,51.2476325 220.962797,52.6615357 C191.191326,54.0754389 177.792274,36.0079164 152.56138,35.3230713 C127.330486,34.6382262 107.583807,53.9996445 72.7430179,53.9996445 C49.5158253,53.9996445 25.2681526,59.3330963 0,70 Z" id="Path-4-Copy"></path>
            <path d="M1161,222 L1531,222 C1509.812,207.559985 1495.32972,197.19785 1487.55315,190.913595 C1463.43162,171.420965 1449.90599,157.252526 1440.15027,154.627681 C1418.44009,148.786404 1411.73427,185.566829 1381.9628,188.313841 C1352.19133,191.060853 1338.79227,155.958238 1313.56138,154.627681 C1288.33049,153.297125 1268.58381,190.913595 1233.74302,190.913595 C1210.51583,190.913595 1186.26815,201.27573 1161,222 Z" id="Path-4-Copy-3" transform="translate(1346.000000, 188.000000) scale(-1, 1) translate(-1346.000000, -188.000000) "></path>
            <path d="M1161,224 L1531,224 C1509.812,216.567639 1495.32972,211.234188 1487.55315,207.999644 C1463.43162,197.966673 1449.90599,190.674094 1440.15027,189.323071 C1418.44009,186.316532 1411.73427,205.247632 1381.9628,206.661536 C1352.19133,208.075439 1338.79227,190.007916 1313.56138,189.323071 C1288.33049,188.638226 1268.58381,207.999644 1233.74302,207.999644 C1210.51583,207.999644 1186.26815,213.333096 1161,224 Z" id="Path-4-Copy-2" transform="translate(1346.000000, 206.500000) scale(-1, 1) translate(-1346.000000, -206.500000) "></path>
            <path d="M498,256 L258,256 C271.743567,241.559985 281.137481,231.19785 286.181742,224.913595 C301.828136,205.420965 310.601522,191.252526 316.929554,188.627681 C331.011834,182.786404 335.361556,219.566829 354.67278,222.313841 C373.984004,225.060853 382.675282,189.958238 399.041267,188.627681 C415.407253,187.297125 428.215909,224.913595 450.81534,224.913595 C465.881627,224.913595 481.609847,235.27573 498,256 Z" id="Path-4-Copy-5"></path>
            <path d="M498,257 L258,257 C271.743567,249.567639 281.137481,244.234188 286.181742,240.999644 C301.828136,230.966673 310.601522,223.674094 316.929554,222.323071 C331.011834,219.316532 335.361556,238.247632 354.67278,239.661536 C373.984004,241.075439 382.675282,223.007916 399.041267,222.323071 C415.407253,221.638226 428.215909,240.999644 450.81534,240.999644 C465.881627,240.999644 481.609847,246.333096 498,257 Z" id="Path-4-Copy-4"></path>
            <path d="M922,85 C939.551122,64.27573 956.393425,53.9135949 972.526907,53.9135949 C996.727131,53.9135949 1010.44307,16.2971252 1027.96831,17.6276814 C1045.49355,18.9582377 1054.80046,54.0608527 1075.47956,51.3138407 C1096.15867,48.5668288 1100.81649,11.7864045 1115.89627,17.6276814 C1122.67254,20.2525256 1132.06737,34.4209649 1148.82205,53.9135949 C1154.22361,60.19785 1164.28293,70.559985 1179,85 L922,85 Z" id="Path-4-Copy-7"></path>
            <path d="M922,86 C939.551122,75.3330963 956.393425,69.9996445 972.526907,69.9996445 C996.727131,69.9996445 1010.44307,50.6382262 1027.96831,51.3230713 C1045.49355,52.0079164 1054.80046,70.0754389 1075.47956,68.6615357 C1096.15867,67.2476325 1100.81649,48.3165317 1115.89627,51.3230713 C1122.67254,52.674094 1132.06737,59.9666731 1148.82205,69.9996445 C1154.22361,73.2341875 1164.28293,78.5676394 1179,86 L922,86 Z" id="Path-4-Copy-6"></path>
        </g>
    </g>
</svg>